{"title":"Salut les frangines (1975)","uid":9237534,"size":782739456,"categoryP":"video","categoryS":"other","magnet":"?xt=urn:btih:7a2d01f6a5da7901f4eff05a5eb831e1abfc1d59&amp;dn=Salut+les+frangines+%281975%29&amp;tr=udp%3A%2F%2Ftracker.openbittorrent.com%3A80&amp;tr=udp%3A%2F%2Fopen.demonii.com%3A1337&amp;tr=udp%3A%2F%2Ftracker.coppersurfer.tk%3A6969&amp;tr=udp%3A%2F%2Fexodus.desync.com%3A6969","seeders":0,"leechers":1,"uploader":null,"files":1,"time":1385206599,"description":" &lt;a href=&quot;http://www.imdb.com/title/tt0217779/&quot; rel=&quot;nofollow&quot; target=&quot;_NEW&quot;&gt;http://www.imdb.com/title/tt0217779/&lt;/a&gt;\n\n\nGeneral\nComplete name                    : Salut les frangines.avi\nFormat                           : AVI\nFormat/Info                      : Audio Video Interleave\nFile size                        : 746 MiB\nDuration                         : 1h 20mn\nOverall bit rate                 : 1 289 Kbps\nWriting application              : VirtualDubMod 1.5.4.1 (build 2178/release)\nWriting library                  : VirtualDubMod build 2178/release\n\nVideo\nID                               : 0\nFormat                           : MPEG-4 Visual\nFormat profile                   : Advanced Simple@L5\nFormat settings, BVOP            : 1\nFormat settings, QPel            : No\nFormat settings, GMC             : No warppoints\nFormat settings, Matrix          : Custom\nCodec ID                         : XVID\nCodec ID/Hint                    : XviD\nDuration                         : 1h 20mn\nBit rate                         : 1 026 Kbps\nWidth                            : 448 pixels\nHeight                           : 336 pixels\nDisplay aspect ratio             : 4:3\nFrame rate                       : 25.000 fps\nColor space                      : YUV\nChroma subsampling               : 4:2:0\nBit depth                        : 8 bits\nScan type                        : Progressive\nCompression mode                 : Lossy\nBits/(Pixel*Frame)               : 0.273\nStream size                      : 594 MiB (80%)\nWriting library                  : XviD 1.2.1 (UTC 2008-12-04)\n\nAudio\nID                               : 1\nFormat                           : AC-3\nFormat/Info                      : Audio Coding 3\nMode extension                   : CM (complete main)\nCodec ID                         : 2000\nDuration                         : 1h 20mn\nBit rate mode                    : Constant\nBit rate                         : 256 Kbps\nChannel(s)                       : 2 channels\nChannel positions                : Front: L R\nSampling rate                    : 48.0 KHz\nBit depth                        : 16 bits\nCompression mode                 : Lossy\nStream size                      : 148 MiB (20%)\nAlignment                        : Split accross interleaves\nInterleave, duration             : 96 ms (2.40 video frames)\nInterleave, preload duration     : 96 ms\n\n","torrent":{"xt":"urn:btih:7a2d01f6a5da7901f4eff05a5eb831e1abfc1d59","amp;dn":"Salut+les+frangines+%281975%29","amp;tr":["udp%3A%2F%2Ftracker.openbittorrent.com%3A80","udp%3A%2F%2Fopen.demonii.com%3A1337","udp%3A%2F%2Ftracker.coppersurfer.tk%3A6969","udp%3A%2F%2Fexodus.desync.com%3A6969"],"infoHash":"7a2d01f6a5da7901f4eff05a5eb831e1abfc1d59","infoHashBuffer":{"type":"Buffer","data":[122,45,1,246,165,218,121,1,244,239,240,90,94,184,49,225,171,252,29,89]},"announce":[],"urlList":[]}}